<?xml version="1.0" encoding="utf-8"?>
<svg version="1.1" xmlns:xlink="http://www.w3.org/1999/xlink" width="30px" height="30px" viewBox="163 258  30 30" xmlns="http://www.w3.org/2000/svg">
  <path d="M 178 258  C 186.4 258  193 264.6  193 273  C 193 281.4  186.4 288  178 288  C 169.6 288  163 281.4  163 273  C 163 264.6  169.6 258  178 258  Z " fill-rule="nonzero" fill="#ffffff" stroke="none" />
  <path d="M 178 258.5  C 186.12 258.5  192.5 264.88  192.5 273  C 192.5 281.12  186.12 287.5  178 287.5  C 169.88 287.5  163.5 281.12  163.5 273  C 163.5 264.88  169.88 258.5  178 258.5  Z " stroke-width="1" stroke="#680fc2" fill="none" />
  <path d="M 178 280.5  C 173.8 280.5  170.5 277.2  170.5 273  C 170.5 268.8  173.8 265.5  178 265.5  C 182.2 265.5  185.5 268.8  185.5 273  C 185.5 277.2  182.2 280.5  178 280.5  " fill-rule="nonzero" fill="#680fc2" stroke="none" />
</svg>