<?xml version="1.0" encoding="utf-8"?>
<svg version="1.1" xmlns:xlink="http://www.w3.org/1999/xlink" width="30px" height="30px" viewBox="439 218  30 30" xmlns="http://www.w3.org/2000/svg">
  <path d="M 454 218  C 462.4 218  469 224.6  469 233  C 469 241.4  462.4 248  454 248  C 445.6 248  439 241.4  439 233  C 439 224.6  445.6 218  454 218  Z " fill-rule="nonzero" fill="#f0f0f0" stroke="none" />
  <path d="M 454 218.5  C 462.12 218.5  468.5 224.88  468.5 233  C 468.5 241.12  462.12 247.5  454 247.5  C 445.88 247.5  439.5 241.12  439.5 233  C 439.5 224.88  445.88 218.5  454 218.5  Z " stroke-width="1" stroke="#680fc2" fill="none" />
  <path d="M 454 240.5  C 449.8 240.5  446.5 237.2  446.5 233  C 446.5 228.8  449.8 225.5  454 225.5  C 458.2 225.5  461.5 228.8  461.5 233  C 461.5 237.2  458.2 240.5  454 240.5  " fill-rule="nonzero" fill="#680fc2" stroke="none" />
</svg>