<?xml version="1.0" encoding="utf-8"?>
<svg version="1.1" xmlns:xlink="http://www.w3.org/1999/xlink" width="70px" height="70px" xmlns="http://www.w3.org/2000/svg">
  <g transform="matrix(1 0 0 1 -22 -515 )">
    <path d="M 17.5 32.4934895833333  C 16.5277777777778 33.0403645833333  16.0416666666667 33.8758680555556  16.0416666666667 35  C 16.0416666666667 36.1241319444444  16.5277777777778 36.9596354166667  17.5 37.5065104166667  L 42.2916666666667 52.08984375  C 42.7473958333333 52.36328125  43.2335069444444 52.5  43.75 52.5  C 44.2361111111111 52.5  44.7222222222222 52.3784722222222  45.2083333333333 52.1354166666667  C 46.1805555555556 51.5581597222222  46.6666666666667 50.7074652777778  46 49.5833333333333  L 46 20.4166666666667  C 46.6666666666667 19.2925347222222  46.1805555555556 18.4418402777778  45.2083333333333 17.8645833333333  C 44.2057291666667 17.3177083333333  43.2335069444444 17.3328993055556  42.2916666666667 17.91015625  L 17.5 32.4934895833333  Z M 13.53515625 47.44140625  C 11.3172743055556 43.6436631944444  10.2083333333333 39.4965277777778  10.2083333333333 35  C 10.2083333333333 30.5034722222222  11.3172743055556 26.3563368055556  13.53515625 22.55859375  C 15.7530381944444 18.7608506944444  18.7608506944444 15.7530381944444  22.55859375 13.53515625  C 26.3563368055556 11.3172743055556  30.5034722222222 10.2083333333333  35 10.2083333333333  C 39.4965277777778 10.2083333333333  43.6436631944444 11.3172743055556  47.44140625 13.53515625  C 51.2391493055556 15.7530381944444  54.2469618055556 18.7608506944444  56.46484375 22.55859375  C 58.6827256944444 26.3563368055556  59.7916666666667 30.5034722222222  59.7916666666667 35  C 59.7916666666667 39.4965277777778  58.6827256944444 43.6436631944444  56.46484375 47.44140625  C 54.2469618055556 51.2391493055556  51.2391493055556 54.2469618055556  47.44140625 56.46484375  C 43.6436631944444 58.6827256944444  39.4965277777778 59.7916666666667  35 59.7916666666667  C 30.5034722222222 59.7916666666667  26.3563368055556 58.6827256944444  22.55859375 56.46484375  C 18.7608506944444 54.2469618055556  15.7530381944444 51.2391493055556  13.53515625 47.44140625  Z M 4.69401041666666 17.431640625  C 1.5646701388889 22.7940538194444  0 28.6501736111111  0 35  C 0 41.3498263888889  1.5646701388889 47.2059461805556  4.69401041666666 52.568359375  C 7.82335069444444 57.9307725694444  12.0692274305556 62.1766493055556  17.431640625 65.3059895833333  C 22.7940538194444 68.4353298611111  28.6501736111111 70  35 70  C 41.3498263888889 70  47.2059461805556 68.4353298611111  52.568359375 65.3059895833333  C 57.9307725694444 62.1766493055556  62.1766493055556 57.9307725694444  65.3059895833333 52.568359375  C 68.4353298611111 47.2059461805556  70 41.3498263888889  70 35  C 70 28.6501736111111  68.4353298611111 22.7940538194444  65.3059895833333 17.431640625  C 62.1766493055556 12.0692274305556  57.9307725694444 7.82335069444444  52.568359375 4.69401041666666  C 47.2059461805556 1.56467013888888  41.3498263888889 0  35 0  C 28.6501736111111 0  22.7940538194444 1.56467013888888  17.431640625 4.69401041666666  C 12.0692274305556 7.82335069444444  7.82335069444444 12.0692274305556  4.69401041666666 17.431640625  Z " fill-rule="nonzero" fill="#680fc2" stroke="none" fill-opacity="0.498039215686275" transform="matrix(1 0 0 1 22 515 )" />
  </g>
</svg>