<?xml version="1.0" encoding="utf-8"?>
<svg version="1.1" xmlns:xlink="http://www.w3.org/1999/xlink" width="70px" height="60px" xmlns="http://www.w3.org/2000/svg">
  <g transform="matrix(1 0 0 1 -992 -515 )">
    <path d="M 59.9380421313507 34.2790335151987  C 59.966955803387 34.3413873733437  59.9814126394052 34.4349181605612  60 34.5596258768511  L 60 57.0070148090413  C 59.9814126394052 57.817614964926  59.7067327550599 58.5190958690569  59.1573729863693 59.1114575214341  C 58.6080132176787 59.7038191738114  57.9574555968608 60  57.2057001239157 60  L 40 60  L 40 42  L 30 42  L 30 60  L 12.7942998760843 60  C 12.0425444031392 60  11.3919867823214 59.7038191738114  10.8426270136307 59.1114575214341  C 10.2932672449401 58.5190958690569  10.0185873605948 57.817614964926  10 57.0070148090413  L 10 34.5596258768511  C 10.0185873605948 34.5284489477786  10.0258157786039 34.4816835541699  10.0402726146221 34.4193296960249  C 10.0547294506402 34.35697583788  10.0619578686493 34.3102104442712  10.0619578686493 34.2790335151987  L 35 12.1122369446609  L 59.9380421313507 34.2790335151987  Z M 69.9566294919455 30.2338269680437  C 69.9855431639818 30.6547155105222  69.8843453118546 31.0210444271239  69.6530359355638 31.3328137178488  L 66.9640644361834 34.7934528448948  C 66.7327550598926 35.0740452065472  66.429161503511 35.2455183164458  66.0532837670384 35.3078721745908  L 65.9231722428748 35.3078721745908  C 65.5472945064023 35.3078721745908  65.2437009500207 35.1987529228371  65.0123915737299 34.9805144193297  L 35 7.99688230709275  L 4.98760842627014 34.9805144193297  C 4.64064436183395 35.2299298519096  4.29368029739777 35.3390491036633  3.94671623296159 35.3078721745908  C 3.57083849648905 35.2455183164458  3.26724494010739 35.0740452065472  3.0359355638166 34.7934528448948  L 0.346964064436183 31.3328137178488  C 0.115654688145395 31.0210444271239  0.0144568360181744 30.6547155105222  0.0433705080545229 30.2338269680437  C 0.0722841800908718 29.8129384255651  0.231309376290789 29.4777864380358  0.520446096654275 29.228371005456  L 31.7038413878563 1.21590023382697  C 32.6290788930194 0.405300077942317  33.7277984304007 0  35 0  C 36.2722015695993 0  37.3709211069806 0.405300077942317  38.2961586121437 1.21590023382697  L 48.8785625774473 10.7560405300078  L 48.8785625774473 1.63678877630553  C 48.8785625774473 1.20031176929072  49.0086741016109 0.841777084957129  49.268897149938 0.561184723304757  C 49.5291201982652 0.280592361652379  49.8616274266832 0.140296180826189  50.2664188351921 0.140296180826189  L 58.5935563816605 0.140296180826189  C 58.9983477901694 0.140296180826189  59.3308550185874 0.280592361652379  59.5910780669145 0.561184723304757  C 59.8513011152416 0.841777084957129  59.9814126394052 1.20031176929072  60 1.63678877630553  L 60 20.7170693686672  L 69.4795539033457 29.228371005456  C 69.7686906237092 29.4777864380358  69.9277158199091 29.8129384255651  69.9566294919455 30.2338269680437  Z " fill-rule="nonzero" fill="#680fc2" stroke="none" fill-opacity="0.498039215686275" transform="matrix(1 0 0 1 992 515 )" />
  </g>
</svg>